<svg width="1517" height="860" viewBox="0 0 1517 860" fill="none" xmlns="http://www.w3.org/2000/svg">
<path d="M1213.18 742.528L1408.02 629.969C1440.94 610.958 1468.28 583.609 1487.29 550.673C1506.3 517.736 1516.3 480.373 1516.3 442.34V6H1213.18V179.32H1343.08V442.501C1343.09 450.108 1341.09 457.582 1337.29 464.17C1333.48 470.758 1328.01 476.226 1321.43 480.025L1213.18 542.487V742.528Z" fill="url(#paint0_linear_193_1858)"/>
<path d="M1213.17 6L910.055 309.256H1213.17V6Z" fill="#C80032"/>
<path d="M1104.92 566.621C1098.33 562.82 1092.86 557.351 1089.06 550.764C1085.25 544.178 1083.25 536.705 1083.24 529.098V309.256H910.067V528.995C910.068 567.024 920.072 604.384 939.074 637.321C958.076 670.258 985.406 697.612 1018.32 716.635L1213.18 829.159V629.187L1104.92 566.621ZM1039.81 309.244V529.098C1039.84 544.338 1043.86 559.303 1051.48 572.498C1059.11 585.692 1070.06 596.653 1083.24 604.283L1213.23 678.985V704.269L1072.54 622.786C1056.11 613.259 1042.47 599.587 1032.97 583.135C1023.48 566.683 1018.47 548.026 1018.43 529.029V309.256L1039.81 309.244ZM1040.06 678.973C1013.75 663.771 991.901 641.907 976.709 615.578C961.518 589.249 953.521 559.384 953.522 528.983V309.256H974.934V529.052C974.976 555.677 982 581.824 995.304 604.883C1008.61 627.942 1027.73 647.105 1050.75 660.459L1213.17 753.859V778.982L1040.06 678.973Z" fill="#C80032"/>
<path d="M624.262 669.258C604.95 651.514 586.927 632.414 570.332 612.104C561.197 628.076 551.355 643.829 541 659.167L540.878 659.338C554.617 674.841 569.141 689.629 584.394 703.643C587.882 706.84 591.455 710.049 595.016 713.173C701.231 806.237 839.423 858.132 984.958 859.669V808.421C853.937 808.006 729.184 761.541 633.482 677.482C630.385 674.785 627.287 672.028 624.262 669.258Z" fill="url(#paint1_linear_193_1858)"/>
<path d="M360.854 669.258C357.829 672.04 354.756 674.822 351.646 677.531C255.908 761.639 131.082 808.092 0 808.495V859.743H19.0501C88.9817 859.743 155.572 846.687 216.978 820.953C284.559 792.816 346.734 753.134 400.723 703.68C416.806 688.912 432.077 673.283 446.47 656.861C436.091 641.389 426.261 625.441 417.102 609.273C399.884 630.652 381.081 650.704 360.854 669.258Z" fill="url(#paint2_linear_193_1858)"/>
<path d="M726.086 599.987C722.964 597.279 719.83 594.484 716.781 591.69C631.263 513.146 584.162 409.1 584.162 298.721V0.114502H528.622V298.721C528.622 356.644 518.536 420.143 501.632 468.572L492.57 494.55L483.497 468.572C466.605 420.13 456.47 356.631 456.47 298.721V0.114502H400.966L400.906 298.721C400.906 409.124 353.793 513.17 268.287 591.69C265.591 594.13 262.823 596.644 260.067 599.011C191.342 659.069 101.568 692.112 7.40295 692.112H0V744.788H27.1726C82.3105 744.788 136.485 732.769 183.854 710.025C229.213 688.332 271.113 660.043 308.192 626.075C354.158 583.856 390.393 534.817 415.894 480.311L425.651 459.482L433.603 481.055C448.747 521.983 468.567 561.024 492.668 597.401C517.755 561.49 537.232 516.782 551.709 480.86L559.953 460.397L569.307 480.372C594.797 534.853 631.019 583.881 676.973 626.075C714.241 660.219 756.38 688.623 802.006 710.354C849.046 732.855 902.635 744.764 957.005 744.776H985.055V692.112H976.225C883.329 692.076 794.506 659.362 726.086 599.987Z" fill="url(#paint3_linear_193_1858)"/>
<path d="M197.916 563.32C206.831 556.487 215.515 549.191 223.723 541.65C258.493 509.983 286.618 471.71 306.46 429.062C326.467 386.095 336.824 339.264 336.804 291.863V232.074H281.3V291.863C281.3 373.019 246.675 449.513 183.805 507.265L183.025 507.972C141.449 545.908 86.5181 566.81 28.3922 566.81H0V622.317H19.6233C51.5908 622.377 83.3657 617.365 113.764 607.467C144.11 597.622 172.564 582.694 197.916 563.32Z" fill="url(#paint4_linear_193_1858)"/>
<path d="M800.665 507.265C737.782 449.513 703.097 373.043 703.097 291.863V232.074H647.618V291.863C647.597 339.264 657.955 386.095 677.961 429.062C697.832 471.719 725.991 509.992 760.796 541.65C769.089 549.276 777.871 556.646 786.896 563.613C812.224 582.94 840.639 597.838 870.938 607.674C901.322 617.578 933.086 622.59 965.042 622.524H984.921V567.018H956.334C898.245 567.018 843.326 546.128 801.665 508.18L800.665 507.265Z" fill="url(#paint5_linear_193_1858)"/>
<defs>
<linearGradient id="paint0_linear_193_1858" x1="1228.23" y1="220.912" x2="1057.93" y2="463.818" gradientUnits="userSpaceOnUse">
<stop stop-color="#C80032"/>
<stop offset="1" stop-color="#C80032" stop-opacity="0"/>
</linearGradient>
<linearGradient id="paint1_linear_193_1858" x1="568.941" y1="670.136" x2="1137.54" y2="945.262" gradientUnits="userSpaceOnUse">
<stop stop-color="#C80032"/>
<stop offset="1" stop-color="#C80032" stop-opacity="0"/>
</linearGradient>
<linearGradient id="paint2_linear_193_1858" x1="388.441" y1="652.444" x2="-26.3025" y2="859.104" gradientUnits="userSpaceOnUse">
<stop stop-color="#C80032"/>
<stop offset="1" stop-color="#C80032" stop-opacity="0"/>
</linearGradient>
<linearGradient id="paint3_linear_193_1858" x1="432.957" y1="263.811" x2="-140.378" y2="604.488" gradientUnits="userSpaceOnUse">
<stop stop-color="#C80032"/>
<stop offset="1" stop-color="#C80032" stop-opacity="0"/>
</linearGradient>
<linearGradient id="paint4_linear_193_1858" x1="293.029" y1="299.335" x2="-76.0417" y2="388.376" gradientUnits="userSpaceOnUse">
<stop stop-color="#C80032"/>
<stop offset="1" stop-color="#C80032" stop-opacity="0"/>
</linearGradient>
<linearGradient id="paint5_linear_193_1858" x1="657.972" y1="293.705" x2="699.604" y2="639.013" gradientUnits="userSpaceOnUse">
<stop stop-color="#C80032"/>
<stop offset="1" stop-color="#C80032" stop-opacity="0"/>
</linearGradient>
</defs>
</svg>
