<svg width="375" height="502" viewBox="0 0 375 502" fill="none" xmlns="http://www.w3.org/2000/svg">
<path opacity="0.5" fill-rule="evenodd" clip-rule="evenodd" d="M107.882 531.112C160.552 465.502 193.242 375.025 193.242 275.527L193.249 0H242.505L242.512 275.527C242.512 323.98 248.687 380.763 260 424.765C271.316 380.763 277.491 323.98 277.491 275.527L277.495 0H326.751L326.758 275.527C326.758 375.025 359.449 465.502 412.119 531.112C443.54 570.256 482.072 600.532 525 618.598V682.86C468.464 662.859 417.813 624.983 377.291 574.503C346.838 536.563 322.103 491.499 304.874 441.559C292.017 484.833 277.83 525.81 260.115 557.011L260 557.219L259.884 557.011C242.17 525.81 227.982 484.833 215.128 441.559C197.897 491.499 173.164 536.563 142.71 574.503C102.188 624.983 51.5374 662.859 -5 682.86V618.598C37.9299 600.532 76.4589 570.256 107.882 531.112ZM282.37 596.664C292.873 613.357 304.172 629.237 316.194 644.216C372.45 714.297 444.544 764.644 525 786V723.053C458.159 702.78 398.273 659.689 351.025 600.831C335.511 581.506 321.361 560.482 308.775 538.008L282.37 596.664ZM467.72 456.007C429.336 408.191 405.511 342.262 405.511 269.768V207.685H356.248V269.768C356.248 359.204 385.6 440.488 432.891 499.398C458.819 531.696 490.151 557.28 525 573.803V506.979C503.686 494.008 484.341 476.709 467.72 456.007ZM114.49 207.685H163.751V269.768C163.751 359.204 134.399 440.488 87.1114 499.398C61.182 531.696 29.8497 557.28 -5 573.803V506.979C16.3149 494.008 35.6614 476.709 52.28 456.007C90.6646 408.191 114.49 342.262 114.49 269.768V207.685ZM168.976 600.831C184.489 581.506 198.64 560.482 211.225 538.008L237.632 596.664C227.129 613.357 215.829 629.237 203.805 644.216C147.552 714.297 75.4567 764.644 -5 786V723.053C61.841 702.78 121.726 659.689 168.976 600.831Z" fill="url(#paint0_linear_193_1413)"/>
<defs>
<linearGradient id="paint0_linear_193_1413" x1="260.327" y1="162.144" x2="260.327" y2="511.989" gradientUnits="userSpaceOnUse">
<stop stop-color="white" stop-opacity="0"/>
<stop offset="1" stop-color="white"/>
</linearGradient>
</defs>
</svg>
