<svg width="1200" height="1452" viewBox="0 0 1200 1452" fill="none" xmlns="http://www.w3.org/2000/svg">
<path opacity="0.5" fill-rule="evenodd" clip-rule="evenodd" d="M255.583 1020.33C374.834 894.284 448.851 720.469 448.851 529.321L448.865 0H560.388L560.404 529.321C560.404 622.404 574.385 731.492 600 816.025C625.62 731.492 639.601 622.404 639.601 529.321L639.612 0H751.135L751.151 529.321C751.151 720.469 825.168 894.284 944.42 1020.33C1015.56 1095.53 1102.8 1153.69 1200 1188.4V1311.86C1071.99 1273.43 957.313 1200.67 865.565 1103.69C796.614 1030.8 740.61 944.229 701.601 848.288C672.492 931.423 640.369 1010.14 600.261 1070.09L600 1070.48L599.738 1070.09C559.63 1010.14 527.508 931.423 498.403 848.288C459.39 944.229 403.391 1030.8 334.438 1103.69C242.689 1200.67 128.009 1273.43 0 1311.86V1188.4C97.1998 1153.69 184.435 1095.53 255.583 1020.33ZM650.649 1146.26C674.429 1178.33 700.012 1208.84 727.232 1237.62C854.603 1372.25 1017.84 1468.97 1200 1510V1389.07C1048.66 1350.12 913.072 1267.34 806.094 1154.27C770.968 1117.14 738.93 1076.75 710.435 1033.58L650.649 1146.26ZM1070.31 876.045C983.403 784.183 929.458 657.526 929.458 518.256V398.988H817.919V518.256C817.919 690.074 884.378 846.231 991.452 959.403C1050.16 1021.45 1121.1 1070.6 1200 1102.34V973.968C1151.74 949.049 1107.94 915.815 1070.31 876.045ZM270.544 398.988H382.079V518.256C382.079 690.074 315.62 846.231 208.554 959.403C149.846 1021.45 78.905 1070.6 0 1102.34V973.968C48.2602 949.049 92.0635 915.815 129.691 876.045C216.599 784.183 270.544 657.526 270.544 518.256V398.988ZM393.908 1154.27C429.033 1117.14 461.071 1076.75 489.566 1033.58L549.357 1146.26C525.576 1178.33 499.99 1208.84 472.767 1237.62C345.4 1372.25 182.166 1468.97 0 1510V1389.07C151.338 1350.12 286.927 1267.34 393.908 1154.27Z" fill="url(#paint0_linear_193_1908)"/>
<defs>
<linearGradient id="paint0_linear_193_1908" x1="600.74" y1="311.498" x2="600.74" y2="983.593" gradientUnits="userSpaceOnUse">
<stop stop-color="white" stop-opacity="0"/>
<stop offset="1" stop-color="white"/>
</linearGradient>
</defs>
</svg>
