<svg width="138" height="42" viewBox="0 0 138 42" fill="none" xmlns="http://www.w3.org/2000/svg">
<path fill-rule="evenodd" clip-rule="evenodd" d="M46.2475 16.0007C46.4101 15.1343 46.5845 14.2441 46.7614 13.3409C47.3322 10.4263 47.9294 7.37687 48.2454 4.55848H51.7783V21.6834H49.4846V14.9084L49.7549 8.78711C49.4258 10.7562 48.1338 18.0141 46.4926 21.4913V21.502H46.2475H46.0025V21.4913C44.3611 18.0141 43.0693 10.7562 42.7402 8.78711L43.0104 14.9084V21.6834H40.7168V4.55848H44.2497C44.5656 7.37703 45.1628 10.4266 45.7337 13.3414L45.7337 13.3415L45.7337 13.3415L45.7337 13.3416C45.9105 14.2446 46.0849 15.1346 46.2475 16.0007ZM99.4824 7.54419V9.64384C99.4824 11.009 98.917 12.0021 98.0173 12.642C98.9824 13.4029 99.4824 14.5846 99.4824 16.0483V21.6526C98.6635 21.6526 97.8443 21.6511 97.0251 21.6496H97.0248H97.0245H97.0242H97.0239H97.0237L97.0209 21.6496C96.2437 21.6482 95.4665 21.6468 94.6893 21.6467V21.6526H92.0614V4.52784H94.6893V4.53379C95.4554 4.53359 96.2215 4.53221 96.9874 4.53083L96.988 4.53083C97.8196 4.52934 98.6511 4.52784 99.4824 4.52784V7.54419ZM94.6893 14.0184V19.2062H96.8531C96.8531 18.6512 96.8535 18.0968 96.8538 17.5423V17.5421C96.8541 16.9874 96.8545 16.4326 96.8545 15.877C96.8545 14.1305 95.6692 13.9645 94.6893 14.0184ZM94.6893 6.9742V11.5662C95.6692 11.6201 96.8545 11.5617 96.8545 9.81516V8.25733H96.8531V6.9742H94.6893ZM85.0281 21.6526H82.4001V4.52784H85.0281H87.5246H90.2005V21.6526H87.5246H85.0281ZM87.5246 6.9742H85.0759V19.2062H87.5246V6.9742ZM56.2673 21.6526H53.6391V4.52784H56.2673H58.7636H61.4396V21.6526H58.7636H56.2673ZM58.7636 6.9742H56.3149V19.2062H58.7636V6.9742ZM103.849 21.6526H101.221V4.52784H109.021V11.4007H106.345V6.9742H103.849V19.2062H106.345V14.7796H109.021V21.6526H106.345H103.849ZM65.9285 21.6526H63.3004V4.52784H71.1008V11.4007H68.4249V6.9742H65.9285V19.2062H68.4249V14.7796H71.1008V21.6526H68.4249H65.9285ZM113.51 21.6834H110.882V4.55848H113.51V11.2699L113.947 11.2711C115.372 11.2747 115.832 9.7311 115.832 8.58574V4.55848H118.46V8.47496C118.46 10.2767 117.791 11.6263 116.488 12.5108C117.899 13.5027 118.46 14.7449 118.46 16.5463V21.6834H115.832V16.4357C115.832 15.3268 115.304 13.9831 113.968 13.9941L113.51 13.9978V21.6834ZM136.906 0.5V2.50601H131.124V0.5H136.906ZM130.03 21.6834V4.55848H132.371V14.5649L135.071 4.55848H138V21.6834H135.635V9.76826L132.409 21.705L130.03 21.6834ZM120.198 21.6834V4.55848H122.539V14.5649L125.239 4.55848H128.169V21.6834H125.804V9.76826L122.578 21.705L120.198 21.6834ZM75.5898 21.6834H72.9617V4.55848H75.5898V11.2699L76.0261 11.2711C77.4513 11.2747 77.911 9.7311 77.911 8.58574V4.55848H80.5393V8.47496C80.5393 10.2767 79.8703 11.6263 78.568 12.5108C79.9783 13.5027 80.5393 14.7449 80.5393 16.5463V21.6834H77.911V16.4357C77.911 15.3268 77.3833 13.9831 76.0474 13.9941L75.5898 13.9978V21.6834ZM52.9963 41.4994H50.3683V24.3745H58.1687V41.4994H55.4928V26.821H52.9963V41.4994ZM43.3449 41.4994H40.7168V24.3745H48.5172V31.2475H45.8414V26.821H43.3449V39.0529H45.8414V34.6264H48.5172V41.4994H45.8414H43.3449ZM62.6431 41.4994H60.015V24.3745H62.6431H65.1396H67.8154V41.4994H65.1396H62.6431ZM65.1396 26.821H62.6909V39.0529H65.1396V26.821ZM77.746 24.3745H85.8691V26.821H83.1217V41.4994H80.4937V26.821H77.746V24.3745ZM77.0231 30.3199V32.4195C77.0231 35.0543 75.6552 36.8959 73.1051 36.8959H72.23V41.4994H69.6021V24.3745C71.2506 24.3836 72.9001 24.3806 74.5495 24.3775H74.5496H74.5498H74.5499H74.55C75.3745 24.376 76.1989 24.3745 77.0231 24.3745V30.3199ZM72.23 26.821V34.4494C73.2099 34.5033 74.395 34.3374 74.395 32.5908V31.0329H74.3937V26.821H72.23ZM19.8692 34.8303C19.1255 34.1256 18.4265 33.3787 17.7768 32.5935L19.4103 29.8344C20.1888 30.8916 21.0641 31.8805 22.0238 32.7895C24.9467 35.558 28.6512 37.5849 32.786 38.5385V41.4994C27.809 40.4949 23.3492 38.1267 19.8692 34.8303ZM6.98295 29.5101C10.2411 26.4239 12.2634 22.1682 12.2634 17.488L12.2638 4.52784H15.3107L15.3112 17.488C15.3112 19.7671 15.6932 22.438 16.393 24.5078C17.093 22.438 17.475 19.7671 17.475 17.488L17.4753 4.52784H20.5223L20.5227 17.488C20.5227 22.1682 22.545 26.4239 25.8032 29.5101C27.7469 31.3513 30.1305 32.7754 32.786 33.6252V36.6479C29.2887 35.7071 26.1554 33.9256 23.6487 31.5511C21.7649 29.7665 20.2347 27.6468 19.1689 25.2977C18.3736 27.3333 17.496 29.2607 16.4002 30.7283L16.393 30.7381L16.3859 30.7283C15.29 29.2607 14.4124 27.3333 13.6172 25.2977C12.5513 27.6468 11.0213 29.7665 9.1374 31.5511C6.63067 33.9256 3.49743 35.7071 0 36.6479V33.6252C2.65566 32.7754 5.03909 31.3513 6.98295 29.5101ZM29.2426 25.9773C26.8682 23.7282 25.3944 20.627 25.3944 17.2171V14.2968H22.3469V17.2171C22.3469 21.4239 24.1627 25.2474 27.0882 28.0183C28.692 29.5376 30.6302 30.741 32.786 31.5182V28.3749C31.4675 27.7648 30.2708 26.9511 29.2426 25.9773ZM7.39171 14.2968H10.439V17.2171C10.439 21.4239 8.62328 25.2474 5.69805 28.0183C4.09405 29.5376 2.15582 30.741 0 31.5182V28.3749C1.31855 27.7648 2.51533 26.9511 3.54337 25.9773C5.91786 23.7282 7.39171 20.627 7.39171 17.2171V14.2968ZM10.7622 32.7895C11.7219 31.8805 12.5972 30.8916 13.3758 29.8344L15.0094 32.5935C14.3596 33.3787 13.6606 34.1256 12.9168 34.8303C9.43691 38.1267 4.97709 40.4949 0 41.4994V38.5385C4.13481 37.5849 7.83934 35.558 10.7622 32.7895Z" fill="#FF0A33"/>
</svg>
